<svg xmlns="http://www.w3.org/2000/svg" xmlns:xlink="http://www.w3.org/1999/xlink" id="body_1" preserveAspectRatio="xMinYMin meet" viewBox="0 0 793 1121"><defs><clipPath id="1"><path clip-rule="evenodd" d="M0 841L0 -0.9199829L0 -0.9199829L595.32 -0.9199829L595.32 -0.9199829L595.32 841L595.32 841L0 841z" /></clipPath><clipPath id="2"><path clip-rule="evenodd" d="M-7.63E-07 150.88L595.32 150.88L595.32 150.88L595.32 10.47998L595.32 10.47998L-7.63E-07 10.47998z" /></clipPath><clipPath id="3"><path clip-rule="evenodd" d="M205.13 71.67999L283.85 71.67999L283.85 71.67999L283.85 20.32001L283.85 20.32001L205.13 20.32001z" /></clipPath><clipPath id="4"><path clip-rule="evenodd" d="M205.13 71.67999L283.85 71.67999L283.85 71.67999L283.85 20.32001L283.85 20.32001L205.13 20.32001z" /></clipPath><clipPath id="5"><path clip-rule="evenodd" d="M205.13 71.67999L283.85 71.67999L283.85 71.67999L283.85 20.32001L283.85 20.32001L205.13 20.32001z" /></clipPath><clipPath id="6"><path clip-rule="evenodd" d="M412.88 70.59998L562.93 70.59998L562.93 70.59998L562.93 43.95996L562.93 43.95996L412.88 43.95996z" /></clipPath><clipPath id="7"><path clip-rule="evenodd" d="M412.87 70.59998L562.92 70.59998L562.92 70.59998L562.92 43.95996L562.92 43.95996L412.87 43.95996z" /></clipPath><clipPath id="8"><path clip-rule="evenodd" d="M412.87 70.59998L562.92 70.59998L562.92 70.59998L562.92 43.95996L562.92 43.95996L412.87 43.95996z" /></clipPath><clipPath id="9"><path clip-rule="evenodd" d="M412.87 70.59998L562.92 70.59998L562.92 70.59998L562.92 43.95996L562.92 43.95996L412.87 43.95996z" /></clipPath><clipPath id="10"><path clip-rule="evenodd" d="M412.87 70.59998L562.92 70.59998L562.92 70.59998L562.92 43.95996L562.92 43.95996L412.87 43.95996z" /></clipPath><clipPath id="11"><path clip-rule="evenodd" d="M412.87 70.59998L562.92 70.59998L562.92 70.59998L562.92 43.95996L562.92 43.95996L412.87 43.95996z" /></clipPath><clipPath id="12"><path clip-rule="evenodd" d="M412.87 70.59998L562.92 70.59998L562.92 70.59998L562.92 43.95996L562.92 43.95996L412.87 43.95996z" /></clipPath><clipPath id="13"><path clip-rule="evenodd" d="M196.49 101.11L262.49 101.11L262.49 101.11L262.49 84.31L262.49 84.31L196.49 84.31z" /></clipPath><clipPath id="14"><path clip-rule="evenodd" d="M196.49 101.1L262.49 101.1L262.49 101.1L262.49 84.29999L262.49 84.29999L196.49 84.29999z" /></clipPath><clipPath id="15"><path clip-rule="evenodd" d="M196.49 101.1L262.49 101.1L262.49 101.1L262.49 84.29999L262.49 84.29999L196.49 84.29999z" /></clipPath><clipPath id="16"><path clip-rule="evenodd" d="M196.61 193.27L555.13 193.27L555.13 193.27L555.13 105.4301L555.13 105.4301L196.61 105.4301z" /></clipPath><clipPath id="17"><path clip-rule="evenodd" d="M196.61 193.26L555.12 193.26L555.12 193.26L555.12 105.42L555.12 105.42L196.61 105.42z" /></clipPath><clipPath id="18"><path clip-rule="evenodd" d="M196.61 193.26L555.12 193.26L555.12 193.26L555.12 105.42L555.12 105.42L196.61 105.42z" /></clipPath><clipPath id="19"><path clip-rule="evenodd" d="M196.61 193.26L555.12 193.26L555.12 193.26L555.12 105.42L555.12 105.42L196.61 105.42z" /></clipPath><clipPath id="20"><path clip-rule="evenodd" d="M196.61 193.26L555.12 193.26L555.12 193.26L555.12 105.42L555.12 105.42L196.61 105.42z" /></clipPath><clipPath id="21"><path clip-rule="evenodd" d="M196.61 193.26L555.12 193.26L555.12 193.26L555.12 105.42L555.12 105.42L196.61 105.42z" /></clipPath><clipPath id="22"><path clip-rule="evenodd" d="M196.61 193.26L555.12 193.26L555.12 193.26L555.12 105.42L555.12 105.42L196.61 105.42z" /></clipPath><clipPath id="23"><path clip-rule="evenodd" d="M196.61 193.26L555.12 193.26L555.12 193.26L555.12 105.42L555.12 105.42L196.61 105.42z" /></clipPath><clipPath id="24"><path clip-rule="evenodd" d="M196.61 193.26L555.12 193.26L555.12 193.26L555.12 105.42L555.12 105.42L196.61 105.42z" /></clipPath><clipPath id="25"><path clip-rule="evenodd" d="M196.61 193.26L555.12 193.26L555.12 193.26L555.12 105.42L555.12 105.42L196.61 105.42z" /></clipPath><clipPath id="26"><path clip-rule="evenodd" d="M196.61 193.26L555.12 193.26L555.12 193.26L555.12 105.42L555.12 105.42L196.61 105.42z" /></clipPath><clipPath id="27"><path clip-rule="evenodd" d="M196.61 193.26L555.12 193.26L555.12 193.26L555.12 105.42L555.12 105.42L196.61 105.42z" /></clipPath><clipPath id="28"><path clip-rule="evenodd" d="M196.61 193.26L555.12 193.26L555.12 193.26L555.12 105.42L555.12 105.42L196.61 105.42z" /></clipPath><clipPath id="29"><path clip-rule="evenodd" d="M196.61 193.26L555.12 193.26L555.12 193.26L555.12 105.42L555.12 105.42L196.61 105.42z" /></clipPath><clipPath id="30"><path clip-rule="evenodd" d="M196.61 193.26L555.12 193.26L555.12 193.26L555.12 105.42L555.12 105.42L196.61 105.42z" /></clipPath><clipPath id="31"><path clip-rule="evenodd" d="M196.61 193.26L555.12 193.26L555.12 193.26L555.12 105.42L555.12 105.42L196.61 105.42z" /></clipPath><clipPath id="32"><path clip-rule="evenodd" d="M196.61 193.26L555.12 193.26L555.12 193.26L555.12 105.42L555.12 105.42L196.61 105.42z" /></clipPath><clipPath id="33"><path clip-rule="evenodd" d="M32.041 224.11L96.991 224.11L96.991 224.11L96.991 207.31L96.991 207.31L32.041 207.31z" /></clipPath><clipPath id="34"><path clip-rule="evenodd" d="M32.04 224.1L96.984 224.1L96.984 224.1L96.984 207.3L96.984 207.3L32.04 207.3z" /></clipPath><clipPath id="35"><path clip-rule="evenodd" d="M32.04 224.1L96.984 224.1L96.984 224.1L96.984 207.3L96.984 207.3L32.04 207.3z" /></clipPath><clipPath id="36"><path clip-rule="evenodd" d="M57.991 252.21L151.831 252.21L151.831 252.21L151.831 230.475L151.831 230.475L57.991 230.475z" /></clipPath><clipPath id="37"><path clip-rule="evenodd" d="M57.984 252.21L151.824 252.21L151.824 252.21L151.824 230.466L151.824 230.466L57.984 230.466z" /></clipPath><clipPath id="38"><path clip-rule="evenodd" d="M57.984 252.21L151.824 252.21L151.824 252.21L151.824 230.466L151.824 230.466L57.984 230.466z" /></clipPath><clipPath id="39"><path clip-rule="evenodd" d="M57.991 283.53L188.211 283.53L188.211 283.53L188.211 261.9301L188.211 261.9301L57.991 261.9301z" /></clipPath><clipPath id="40"><path clip-rule="evenodd" d="M57.984 283.53L188.204 283.53L188.204 283.53L188.204 261.9301L188.204 261.9301L57.984 261.9301z" /></clipPath><clipPath id="41"><path clip-rule="evenodd" d="M57.984 283.53L188.204 283.53L188.204 283.53L188.204 261.9301L188.204 261.9301L57.984 261.9301z" /></clipPath><clipPath id="42"><path clip-rule="evenodd" d="M57.984 283.53L188.204 283.53L188.204 283.53L188.204 261.9301L188.204 261.9301L57.984 261.9301z" /></clipPath><clipPath id="43"><path clip-rule="evenodd" d="M57.391 314.73L180.171 314.73L180.171 314.73L180.171 293.13L180.171 293.13L57.391 293.13z" /></clipPath><clipPath id="44"><path clip-rule="evenodd" d="M57.384 314.73L180.164 314.73L180.164 314.73L180.164 293.13L180.164 293.13L57.384 293.13z" /></clipPath><clipPath id="45"><path clip-rule="evenodd" d="M57.384 314.73L180.164 314.73L180.164 314.73L180.164 293.13L180.164 293.13L57.384 293.13z" /></clipPath><clipPath id="46"><path clip-rule="evenodd" d="M32.041 361.29L99.631 361.29L99.631 361.29L99.631 344.49L99.631 344.49L32.041 344.49z" /></clipPath><clipPath id="47"><path clip-rule="evenodd" d="M32.04 361.29L99.624 361.29L99.624 361.29L99.624 344.49L99.624 344.49L32.04 344.49z" /></clipPath><clipPath id="48"><path clip-rule="evenodd" d="M32.04 361.29L99.624 361.29L99.624 361.29L99.624 344.49L99.624 344.49L32.04 344.49z" /></clipPath><clipPath id="49"><path clip-rule="evenodd" d="M33.121 484.08L166.591 484.08L166.591 484.08L166.591 369.57L166.591 369.57L33.121 369.57z" /></clipPath><clipPath id="50"><path clip-rule="evenodd" d="M33.12 484.07L166.58 484.07L166.58 484.07L166.58 369.57L166.58 369.57L33.12 369.57z" /></clipPath><clipPath id="51"><path clip-rule="evenodd" d="M33.12 484.07L166.58 484.07L166.58 484.07L166.58 369.57L166.58 369.57L33.12 369.57z" /></clipPath><clipPath id="52"><path clip-rule="evenodd" d="M33.12 484.07L166.58 484.07L166.58 484.07L166.58 369.57L166.58 369.57L33.12 369.57z" /></clipPath><clipPath id="53"><path clip-rule="evenodd" d="M33.12 484.07L166.58 484.07L166.58 484.07L166.58 369.57L166.58 369.57L33.12 369.57z" /></clipPath><clipPath id="54"><path clip-rule="evenodd" d="M33.12 484.07L166.58 484.07L166.58 484.07L166.58 369.57L166.58 369.57L33.12 369.57z" /></clipPath><clipPath id="55"><path clip-rule="evenodd" d="M33.12 484.07L166.58 484.07L166.58 484.07L166.58 369.57L166.58 369.57L33.12 369.57z" /></clipPath><clipPath id="56"><path clip-rule="evenodd" d="M33.12 484.07L166.58 484.07L166.58 484.07L166.58 369.57L166.58 369.57L33.12 369.57z" /></clipPath><clipPath id="57"><path clip-rule="evenodd" d="M33.12 484.07L166.58 484.07L166.58 484.07L166.58 369.57L166.58 369.57L33.12 369.57z" /></clipPath><clipPath id="58"><path clip-rule="evenodd" d="M33.12 484.07L166.58 484.07L166.58 484.07L166.58 369.57L166.58 369.57L33.12 369.57z" /></clipPath><clipPath id="59"><path clip-rule="evenodd" d="M33.12 484.07L166.58 484.07L166.58 484.07L166.58 369.57L166.58 369.57L33.12 369.57z" /></clipPath><clipPath id="60"><path clip-rule="evenodd" d="M33.12 484.07L166.58 484.07L166.58 484.07L166.58 369.57L166.58 369.57L33.12 369.57z" /></clipPath><clipPath id="61"><path clip-rule="evenodd" d="M33.12 484.07L166.58 484.07L166.58 484.07L166.58 369.57L166.58 369.57L33.12 369.57z" /></clipPath><clipPath id="62"><path clip-rule="evenodd" d="M33.12 484.07L166.58 484.07L166.58 484.07L166.58 369.57L166.58 369.57L33.12 369.57z" /></clipPath><clipPath id="63"><path clip-rule="evenodd" d="M33.12 484.07L166.58 484.07L166.58 484.07L166.58 369.57L166.58 369.57L33.12 369.57z" /></clipPath><clipPath id="64"><path clip-rule="evenodd" d="M33.12 484.07L166.58 484.07L166.58 484.07L166.58 369.57L166.58 369.57L33.12 369.57z" /></clipPath><clipPath id="65"><path clip-rule="evenodd" d="M33.12 484.07L166.58 484.07L166.58 484.07L166.58 369.57L166.58 369.57L33.12 369.57z" /></clipPath><clipPath id="66"><path clip-rule="evenodd" d="M33.12 484.07L166.58 484.07L166.58 484.07L166.58 369.57L166.58 369.57L33.12 369.57z" /></clipPath><clipPath id="67"><path clip-rule="evenodd" d="M33.12 484.07L166.58 484.07L166.58 484.07L166.58 369.57L166.58 369.57L33.12 369.57z" /></clipPath><clipPath id="68"><path clip-rule="evenodd" d="M33.12 484.07L166.58 484.07L166.58 484.07L166.58 369.57L166.58 369.57L33.12 369.57z" /></clipPath><clipPath id="69"><path clip-rule="evenodd" d="M33.12 484.07L166.58 484.07L166.58 484.07L166.58 369.57L166.58 369.57L33.12 369.57z" /></clipPath><clipPath id="70"><path clip-rule="evenodd" d="M33.12 484.07L166.58 484.07L166.58 484.07L166.58 369.57L166.58 369.57L33.12 369.57z" /></clipPath><clipPath id="71"><path clip-rule="evenodd" d="M32.041 514.44L102.391 514.44L102.391 514.44L102.391 497.64L102.391 497.64L32.041 497.64z" /></clipPath><clipPath id="72"><path clip-rule="evenodd" d="M32.04 514.43L102.384 514.43L102.384 514.43L102.384 497.63L102.384 497.63L32.04 497.63z" /></clipPath><clipPath id="73"><path clip-rule="evenodd" d="M32.04 514.43L102.384 514.43L102.384 514.43L102.384 497.63L102.384 497.63L32.04 497.63z" /></clipPath><clipPath id="74"><path clip-rule="evenodd" d="M33.121 634.33L177.051 634.33L177.051 634.33L177.051 515.39L177.051 515.39L33.121 515.39z" /></clipPath><clipPath id="75"><path clip-rule="evenodd" d="M33.12 634.34L177.05 634.34L177.05 634.34L177.05 515.4L177.05 515.4L33.12 515.4z" /></clipPath><clipPath id="76"><path clip-rule="evenodd" d="M33.12 634.34L177.05 634.34L177.05 634.34L177.05 515.4L177.05 515.4L33.12 515.4z" /></clipPath><clipPath id="77"><path clip-rule="evenodd" d="M33.12 634.34L177.05 634.34L177.05 634.34L177.05 515.4L177.05 515.4L33.12 515.4z" /></clipPath><clipPath id="78"><path clip-rule="evenodd" d="M33.12 634.34L177.05 634.34L177.05 634.34L177.05 515.4L177.05 515.4L33.12 515.4z" /></clipPath><clipPath id="79"><path clip-rule="evenodd" d="M33.12 634.34L177.05 634.34L177.05 634.34L177.05 515.4L177.05 515.4L33.12 515.4z" /></clipPath><clipPath id="80"><path clip-rule="evenodd" d="M33.12 634.34L177.05 634.34L177.05 634.34L177.05 515.4L177.05 515.4L33.12 515.4z" /></clipPath><clipPath id="81"><path clip-rule="evenodd" d="M33.12 634.34L177.05 634.34L177.05 634.34L177.05 515.4L177.05 515.4L33.12 515.4z" /></clipPath><clipPath id="82"><path clip-rule="evenodd" d="M33.12 634.34L177.05 634.34L177.05 634.34L177.05 515.4L177.05 515.4L33.12 515.4z" /></clipPath><clipPath id="83"><path clip-rule="evenodd" d="M33.12 634.34L177.05 634.34L177.05 634.34L177.05 515.4L177.05 515.4L33.12 515.4z" /></clipPath><clipPath id="84"><path clip-rule="evenodd" d="M33.12 634.34L177.05 634.34L177.05 634.34L177.05 515.4L177.05 515.4L33.12 515.4z" /></clipPath><clipPath id="85"><path clip-rule="evenodd" d="M33.12 634.34L177.05 634.34L177.05 634.34L177.05 515.4L177.05 515.4L33.12 515.4z" /></clipPath><clipPath id="86"><path clip-rule="evenodd" d="M33.12 634.34L177.05 634.34L177.05 634.34L177.05 515.4L177.05 515.4L33.12 515.4z" /></clipPath><clipPath id="87"><path clip-rule="evenodd" d="M33.12 634.34L177.05 634.34L177.05 634.34L177.05 515.4L177.05 515.4L33.12 515.4z" /></clipPath><clipPath id="88"><path clip-rule="evenodd" d="M33.12 634.34L177.05 634.34L177.05 634.34L177.05 515.4L177.05 515.4L33.12 515.4z" /></clipPath><clipPath id="89"><path clip-rule="evenodd" d="M33.12 634.34L177.05 634.34L177.05 634.34L177.05 515.4L177.05 515.4L33.12 515.4z" /></clipPath><clipPath id="90"><path clip-rule="evenodd" d="M33.12 634.34L177.05 634.34L177.05 634.34L177.05 515.4L177.05 515.4L33.12 515.4z" /></clipPath><clipPath id="91"><path clip-rule="evenodd" d="M33.12 634.34L177.05 634.34L177.05 634.34L177.05 515.4L177.05 515.4L33.12 515.4z" /></clipPath><clipPath id="92"><path clip-rule="evenodd" d="M33.12 634.34L177.05 634.34L177.05 634.34L177.05 515.4L177.05 515.4L33.12 515.4z" /></clipPath><clipPath id="93"><path clip-rule="evenodd" d="M33.12 634.34L177.05 634.34L177.05 634.34L177.05 515.4L177.05 515.4L33.12 515.4z" /></clipPath><clipPath id="94"><path clip-rule="evenodd" d="M33.12 634.34L177.05 634.34L177.05 634.34L177.05 515.4L177.05 515.4L33.12 515.4z" /></clipPath><clipPath id="95"><path clip-rule="evenodd" d="M33.12 634.34L177.05 634.34L177.05 634.34L177.05 515.4L177.05 515.4L33.12 515.4z" /></clipPath><clipPath id="96"><path clip-rule="evenodd" d="M33.12 634.34L177.05 634.34L177.05 634.34L177.05 515.4L177.05 515.4L33.12 515.4z" /></clipPath><clipPath id="97"><path clip-rule="evenodd" d="M33.12 634.34L177.05 634.34L177.05 634.34L177.05 515.4L177.05 515.4L33.12 515.4z" /></clipPath><clipPath id="98"><path clip-rule="evenodd" d="M33.12 634.34L177.05 634.34L177.05 634.34L177.05 515.4L177.05 515.4L33.12 515.4z" /></clipPath><clipPath id="99"><path clip-rule="evenodd" d="M33.12 634.34L177.05 634.34L177.05 634.34L177.05 515.4L177.05 515.4L33.12 515.4z" /></clipPath><clipPath id="100"><path clip-rule="evenodd" d="M33.12 634.34L177.05 634.34L177.05 634.34L177.05 515.4L177.05 515.4L33.12 515.4z" /></clipPath><clipPath id="101"><path clip-rule="evenodd" d="M33.12 634.34L177.05 634.34L177.05 634.34L177.05 515.4L177.05 515.4L33.12 515.4z" /></clipPath><clipPath id="102"><path clip-rule="evenodd" d="M33.12 634.34L177.05 634.34L177.05 634.34L177.05 515.4L177.05 515.4L33.12 515.4z" /></clipPath><clipPath id="103"><path clip-rule="evenodd" d="M33.12 634.34L177.05 634.34L177.05 634.34L177.05 515.4L177.05 515.4L33.12 515.4z" /></clipPath><clipPath id="104"><path clip-rule="evenodd" d="M32.761 658.33L103.111 658.33L103.111 658.33L103.111 641.53L103.111 641.53L32.761 641.53z" /></clipPath><clipPath id="105"><path clip-rule="evenodd" d="M32.76 658.34L103.104 658.34L103.104 658.34L103.104 641.54L103.104 641.54L32.76 641.54z" /></clipPath><clipPath id="106"><path clip-rule="evenodd" d="M32.76 658.34L103.104 658.34L103.104 658.34L103.104 641.54L103.104 641.54L32.76 641.54z" /></clipPath><clipPath id="107"><path clip-rule="evenodd" d="M196.49 223.39L261.41 223.39L261.41 223.39L261.41 206.59L261.41 206.59L196.49 206.59z" /></clipPath><clipPath id="108"><path clip-rule="evenodd" d="M196.49 223.38L261.41 223.38L261.41 223.38L261.41 206.58L261.41 206.58L196.49 206.58z" /></clipPath><clipPath id="109"><path clip-rule="evenodd" d="M196.49 223.38L261.41 223.38L261.41 223.38L261.41 206.58L261.41 206.58L196.49 206.58z" /></clipPath><clipPath id="110"><path clip-rule="evenodd" d="M196.61 665.77L571.33 665.77L571.33 665.77L571.33 228.43L571.33 228.43L196.61 228.43z" /></clipPath><clipPath id="111"><path clip-rule="evenodd" d="M196.61 665.78L571.32 665.78L571.32 665.78L571.32 228.43L571.32 228.43L196.61 228.43z" /></clipPath><clipPath id="112"><path clip-rule="evenodd" d="M196.61 665.78L571.32 665.78L571.32 665.78L571.32 228.43L571.32 228.43L196.61 228.43z" /></clipPath><clipPath id="113"><path clip-rule="evenodd" d="M196.61 665.78L571.32 665.78L571.32 665.78L571.32 228.43L571.32 228.43L196.61 228.43z" /></clipPath><clipPath id="114"><path clip-rule="evenodd" d="M196.61 665.78L571.32 665.78L571.32 665.78L571.32 228.43L571.32 228.43L196.61 228.43z" /></clipPath><clipPath id="115"><path clip-rule="evenodd" d="M196.61 665.78L571.32 665.78L571.32 665.78L571.32 228.43L571.32 228.43L196.61 228.43z" /></clipPath><clipPath id="116"><path clip-rule="evenodd" d="M196.61 665.78L571.32 665.78L571.32 665.78L571.32 228.43L571.32 228.43L196.61 228.43z" /></clipPath><clipPath id="117"><path clip-rule="evenodd" d="M196.61 665.78L571.32 665.78L571.32 665.78L571.32 228.43L571.32 228.43L196.61 228.43z" /></clipPath><clipPath id="118"><path clip-rule="evenodd" d="M196.61 665.78L571.32 665.78L571.32 665.78L571.32 228.43L571.32 228.43L196.61 228.43z" /></clipPath><clipPath id="119"><path clip-rule="evenodd" d="M196.61 665.78L571.32 665.78L571.32 665.78L571.32 228.43L571.32 228.43L196.61 228.43z" /></clipPath><clipPath id="120"><path clip-rule="evenodd" d="M196.61 665.78L571.32 665.78L571.32 665.78L571.32 228.43L571.32 228.43L196.61 228.43z" /></clipPath><clipPath id="121"><path clip-rule="evenodd" d="M196.61 665.78L571.32 665.78L571.32 665.78L571.32 228.43L571.32 228.43L196.61 228.43z" /></clipPath><clipPath id="122"><path clip-rule="evenodd" d="M196.61 665.78L571.32 665.78L571.32 665.78L571.32 228.43L571.32 228.43L196.61 228.43z" /></clipPath><clipPath id="123"><path clip-rule="evenodd" d="M196.61 665.78L571.32 665.78L571.32 665.78L571.32 228.43L571.32 228.43L196.61 228.43z" /></clipPath><clipPath id="124"><path clip-rule="evenodd" d="M196.61 665.78L571.32 665.78L571.32 665.78L571.32 228.43L571.32 228.43L196.61 228.43z" /></clipPath><clipPath id="125"><path clip-rule="evenodd" d="M196.61 665.78L571.32 665.78L571.32 665.78L571.32 228.43L571.32 228.43L196.61 228.43z" /></clipPath><clipPath id="126"><path clip-rule="evenodd" d="M196.61 665.78L571.32 665.78L571.32 665.78L571.32 228.43L571.32 228.43L196.61 228.43z" /></clipPath><clipPath id="127"><path clip-rule="evenodd" d="M196.61 665.78L571.32 665.78L571.32 665.78L571.32 228.43L571.32 228.43L196.61 228.43z" /></clipPath><clipPath id="128"><path clip-rule="evenodd" d="M196.61 665.78L571.32 665.78L571.32 665.78L571.32 228.43L571.32 228.43L196.61 228.43z" /></clipPath><clipPath id="129"><path clip-rule="evenodd" d="M196.61 665.78L571.32 665.78L571.32 665.78L571.32 228.43L571.32 228.43L196.61 228.43z" /></clipPath><clipPath id="130"><path clip-rule="evenodd" d="M196.61 665.78L571.32 665.78L571.32 665.78L571.32 228.43L571.32 228.43L196.61 228.43z" /></clipPath><clipPath id="131"><path clip-rule="evenodd" d="M196.61 665.78L571.32 665.78L571.32 665.78L571.32 228.43L571.32 228.43L196.61 228.43z" /></clipPath><clipPath id="132"><path clip-rule="evenodd" d="M196.61 665.78L571.32 665.78L571.32 665.78L571.32 228.43L571.32 228.43L196.61 228.43z" /></clipPath><clipPath id="133"><path clip-rule="evenodd" d="M196.61 665.78L571.32 665.78L571.32 665.78L571.32 228.43L571.32 228.43L196.61 228.43z" /></clipPath><clipPath id="134"><path clip-rule="evenodd" d="M196.61 665.78L571.32 665.78L571.32 665.78L571.32 228.43L571.32 228.43L196.61 228.43z" /></clipPath><clipPath id="135"><path clip-rule="evenodd" d="M196.61 665.78L571.32 665.78L571.32 665.78L571.32 228.43L571.32 228.43L196.61 228.43z" /></clipPath><clipPath id="136"><path clip-rule="evenodd" d="M196.61 665.78L571.32 665.78L571.32 665.78L571.32 228.43L571.32 228.43L196.61 228.43z" /></clipPath><clipPath id="137"><path clip-rule="evenodd" d="M196.61 665.78L571.32 665.78L571.32 665.78L571.32 228.43L571.32 228.43L196.61 228.43z" /></clipPath><clipPath id="138"><path clip-rule="evenodd" d="M196.61 665.78L571.32 665.78L571.32 665.78L571.32 228.43L571.32 228.43L196.61 228.43z" /></clipPath><clipPath id="139"><path clip-rule="evenodd" d="M196.61 665.78L571.32 665.78L571.32 665.78L571.32 228.43L571.32 228.43L196.61 228.43z" /></clipPath><clipPath id="140"><path clip-rule="evenodd" d="M196.61 665.78L571.32 665.78L571.32 665.78L571.32 228.43L571.32 228.43L196.61 228.43z" /></clipPath><clipPath id="141"><path clip-rule="evenodd" d="M196.61 665.78L571.32 665.78L571.32 665.78L571.32 228.43L571.32 228.43L196.61 228.43z" /></clipPath><clipPath id="142"><path clip-rule="evenodd" d="M196.61 665.78L571.32 665.78L571.32 665.78L571.32 228.43L571.32 228.43L196.61 228.43z" /></clipPath><clipPath id="143"><path clip-rule="evenodd" d="M196.61 665.78L571.32 665.78L571.32 665.78L571.32 228.43L571.32 228.43L196.61 228.43z" /></clipPath><clipPath id="144"><path clip-rule="evenodd" d="M196.61 665.78L571.32 665.78L571.32 665.78L571.32 228.43L571.32 228.43L196.61 228.43z" /></clipPath><clipPath id="145"><path clip-rule="evenodd" d="M196.61 665.78L571.32 665.78L571.32 665.78L571.32 228.43L571.32 228.43L196.61 228.43z" /></clipPath><clipPath id="146"><path clip-rule="evenodd" d="M196.61 665.78L571.32 665.78L571.32 665.78L571.32 228.43L571.32 228.43L196.61 228.43z" /></clipPath><clipPath id="147"><path clip-rule="evenodd" d="M196.61 665.78L571.32 665.78L571.32 665.78L571.32 228.43L571.32 228.43L196.61 228.43z" /></clipPath><clipPath id="148"><path clip-rule="evenodd" d="M196.61 665.78L571.32 665.78L571.32 665.78L571.32 228.43L571.32 228.43L196.61 228.43z" /></clipPath><clipPath id="149"><path clip-rule="evenodd" d="M196.61 665.78L571.32 665.78L571.32 665.78L571.32 228.43L571.32 228.43L196.61 228.43z" /></clipPath><clipPath id="150"><path clip-rule="evenodd" d="M196.61 665.78L571.32 665.78L571.32 665.78L571.32 228.43L571.32 228.43L196.61 228.43z" /></clipPath><clipPath id="151"><path clip-rule="evenodd" d="M196.61 665.78L571.32 665.78L571.32 665.78L571.32 228.43L571.32 228.43L196.61 228.43z" /></clipPath><clipPath id="152"><path clip-rule="evenodd" d="M196.61 665.78L571.32 665.78L571.32 665.78L571.32 228.43L571.32 228.43L196.61 228.43z" /></clipPath><clipPath id="153"><path clip-rule="evenodd" d="M196.61 665.78L571.32 665.78L571.32 665.78L571.32 228.43L571.32 228.43L196.61 228.43z" /></clipPath><clipPath id="154"><path clip-rule="evenodd" d="M196.61 665.78L571.32 665.78L571.32 665.78L571.32 228.43L571.32 228.43L196.61 228.43z" /></clipPath><clipPath id="155"><path clip-rule="evenodd" d="M196.61 665.78L571.32 665.78L571.32 665.78L571.32 228.43L571.32 228.43L196.61 228.43z" /></clipPath><clipPath id="156"><path clip-rule="evenodd" d="M196.61 665.78L571.32 665.78L571.32 665.78L571.32 228.43L571.32 228.43L196.61 228.43z" /></clipPath><clipPath id="157"><path clip-rule="evenodd" d="M196.61 665.78L571.32 665.78L571.32 665.78L571.32 228.43L571.32 228.43L196.61 228.43z" /></clipPath><clipPath id="158"><path clip-rule="evenodd" d="M196.61 665.78L571.32 665.78L571.32 665.78L571.32 228.43L571.32 228.43L196.61 228.43z" /></clipPath><clipPath id="159"><path clip-rule="evenodd" d="M196.61 665.78L571.32 665.78L571.32 665.78L571.32 228.43L571.32 228.43L196.61 228.43z" /></clipPath><clipPath id="160"><path clip-rule="evenodd" d="M196.61 665.78L571.32 665.78L571.32 665.78L571.32 228.43L571.32 228.43L196.61 228.43z" /></clipPath><clipPath id="161"><path clip-rule="evenodd" d="M196.61 665.78L571.32 665.78L571.32 665.78L571.32 228.43L571.32 228.43L196.61 228.43z" /></clipPath><clipPath id="162"><path clip-rule="evenodd" d="M196.61 665.78L571.32 665.78L571.32 665.78L571.32 228.43L571.32 228.43L196.61 228.43z" /></clipPath><clipPath id="163"><path clip-rule="evenodd" d="M196.61 665.78L571.32 665.78L571.32 665.78L571.32 228.43L571.32 228.43L196.61 228.43z" /></clipPath><clipPath id="164"><path clip-rule="evenodd" d="M196.61 665.78L571.32 665.78L571.32 665.78L571.32 228.43L571.32 228.43L196.61 228.43z" /></clipPath><clipPath id="165"><path clip-rule="evenodd" d="M196.61 665.78L571.32 665.78L571.32 665.78L571.32 228.43L571.32 228.43L196.61 228.43z" /></clipPath><clipPath id="166"><path clip-rule="evenodd" d="M196.61 665.78L571.32 665.78L571.32 665.78L571.32 228.43L571.32 228.43L196.61 228.43z" /></clipPath><clipPath id="167"><path clip-rule="evenodd" d="M196.61 665.78L571.32 665.78L571.32 665.78L571.32 228.43L571.32 228.43L196.61 228.43z" /></clipPath><clipPath id="168"><path clip-rule="evenodd" d="M196.61 665.78L571.32 665.78L571.32 665.78L571.32 228.43L571.32 228.43L196.61 228.43z" /></clipPath><clipPath id="169"><path clip-rule="evenodd" d="M196.61 665.78L571.32 665.78L571.32 665.78L571.32 228.43L571.32 228.43L196.61 228.43z" /></clipPath><clipPath id="170"><path clip-rule="evenodd" d="M196.61 665.78L571.32 665.78L571.32 665.78L571.32 228.43L571.32 228.43L196.61 228.43z" /></clipPath><clipPath id="171"><path clip-rule="evenodd" d="M196.61 665.78L571.32 665.78L571.32 665.78L571.32 228.43L571.32 228.43L196.61 228.43z" /></clipPath><clipPath id="172"><path clip-rule="evenodd" d="M196.61 665.78L571.32 665.78L571.32 665.78L571.32 228.43L571.32 228.43L196.61 228.43z" /></clipPath><clipPath id="173"><path clip-rule="evenodd" d="M196.61 665.78L571.32 665.78L571.32 665.78L571.32 228.43L571.32 228.43L196.61 228.43z" /></clipPath><clipPath id="174"><path clip-rule="evenodd" d="M196.61 665.78L571.32 665.78L571.32 665.78L571.32 228.43L571.32 228.43L196.61 228.43z" /></clipPath><clipPath id="175"><path clip-rule="evenodd" d="M196.61 665.78L571.32 665.78L571.32 665.78L571.32 228.43L571.32 228.43L196.61 228.43z" /></clipPath><clipPath id="176"><path clip-rule="evenodd" d="M196.61 665.78L571.32 665.78L571.32 665.78L571.32 228.43L571.32 228.43L196.61 228.43z" /></clipPath><clipPath id="177"><path clip-rule="evenodd" d="M196.61 665.78L571.32 665.78L571.32 665.78L571.32 228.43L571.32 228.43L196.61 228.43z" /></clipPath><clipPath id="178"><path clip-rule="evenodd" d="M196.61 665.78L571.32 665.78L571.32 665.78L571.32 228.43L571.32 228.43L196.61 228.43z" /></clipPath><clipPath id="179"><path clip-rule="evenodd" d="M196.61 665.78L571.32 665.78L571.32 665.78L571.32 228.43L571.32 228.43L196.61 228.43z" /></clipPath><clipPath id="180"><path clip-rule="evenodd" d="M196.61 665.78L571.32 665.78L571.32 665.78L571.32 228.43L571.32 228.43L196.61 228.43z" /></clipPath><clipPath id="181"><path clip-rule="evenodd" d="M196.61 665.78L571.32 665.78L571.32 665.78L571.32 228.43L571.32 228.43L196.61 228.43z" /></clipPath><clipPath id="182"><path clip-rule="evenodd" d="M196.61 665.78L571.32 665.78L571.32 665.78L571.32 228.43L571.32 228.43L196.61 228.43z" /></clipPath><clipPath id="183"><path clip-rule="evenodd" d="M196.61 665.78L571.32 665.78L571.32 665.78L571.32 228.43L571.32 228.43L196.61 228.43z" /></clipPath><clipPath id="184"><path clip-rule="evenodd" d="M196.61 665.78L571.32 665.78L571.32 665.78L571.32 228.43L571.32 228.43L196.61 228.43z" /></clipPath><clipPath id="185"><path clip-rule="evenodd" d="M196.61 665.78L571.32 665.78L571.32 665.78L571.32 228.43L571.32 228.43L196.61 228.43z" /></clipPath><clipPath id="186"><path clip-rule="evenodd" d="M196.49 697.45L261.41 697.45L261.41 697.45L261.41 680.65L261.41 680.65L196.49 680.65z" /></clipPath><clipPath id="187"><path clip-rule="evenodd" d="M196.49 697.46L261.41 697.46L261.41 697.46L261.41 680.66L261.41 680.66L196.49 680.66z" /></clipPath><clipPath id="188"><path clip-rule="evenodd" d="M196.49 697.46L261.41 697.46L261.41 697.46L261.41 680.66L261.41 680.66L196.49 680.66z" /></clipPath><clipPath id="189"><path clip-rule="evenodd" d="M195.17 788.921L572.41 788.921L572.41 788.921L572.41 707.771L572.41 707.771L195.17 707.771z" /></clipPath><clipPath id="190"><path clip-rule="evenodd" d="M195.17 788.92L572.4 788.92L572.4 788.92L572.4 707.776L572.4 707.776L195.17 707.776z" /></clipPath><clipPath id="191"><path clip-rule="evenodd" d="M195.17 788.92L572.4 788.92L572.4 788.92L572.4 707.776L572.4 707.776L195.17 707.776z" /></clipPath><clipPath id="192"><path clip-rule="evenodd" d="M195.17 788.92L572.4 788.92L572.4 788.92L572.4 707.776L572.4 707.776L195.17 707.776z" /></clipPath><clipPath id="193"><path clip-rule="evenodd" d="M195.17 788.92L572.4 788.92L572.4 788.92L572.4 707.776L572.4 707.776L195.17 707.776z" /></clipPath><clipPath id="194"><path clip-rule="evenodd" d="M195.17 788.92L572.4 788.92L572.4 788.92L572.4 707.776L572.4 707.776L195.17 707.776z" /></clipPath><clipPath id="195"><path clip-rule="evenodd" d="M195.17 788.92L572.4 788.92L572.4 788.92L572.4 707.776L572.4 707.776L195.17 707.776z" /></clipPath><clipPath id="196"><path clip-rule="evenodd" d="M195.17 788.92L572.4 788.92L572.4 788.92L572.4 707.776L572.4 707.776L195.17 707.776z" /></clipPath><clipPath id="197"><path clip-rule="evenodd" d="M195.17 788.92L572.4 788.92L572.4 788.92L572.4 707.776L572.4 707.776L195.17 707.776z" /></clipPath><clipPath id="198"><path clip-rule="evenodd" d="M195.17 788.92L572.4 788.92L572.4 788.92L572.4 707.776L572.4 707.776L195.17 707.776z" /></clipPath><clipPath id="199"><path clip-rule="evenodd" d="M195.17 788.92L572.4 788.92L572.4 788.92L572.4 707.776L572.4 707.776L195.17 707.776z" /></clipPath><clipPath id="200"><path clip-rule="evenodd" d="M195.17 788.92L572.4 788.92L572.4 788.92L572.4 707.776L572.4 707.776L195.17 707.776z" /></clipPath><clipPath id="201"><path clip-rule="evenodd" d="M195.17 788.92L572.4 788.92L572.4 788.92L572.4 707.776L572.4 707.776L195.17 707.776z" /></clipPath><clipPath id="202"><path clip-rule="evenodd" d="M195.17 788.92L572.4 788.92L572.4 788.92L572.4 707.776L572.4 707.776L195.17 707.776z" /></clipPath><clipPath id="203"><path clip-rule="evenodd" d="M195.17 788.92L572.4 788.92L572.4 788.92L572.4 707.776L572.4 707.776L195.17 707.776z" /></clipPath><clipPath id="204"><path clip-rule="evenodd" d="M195.17 788.92L572.4 788.92L572.4 788.92L572.4 707.776L572.4 707.776L195.17 707.776z" /></clipPath><clipPath id="205"><path clip-rule="evenodd" d="M195.17 788.92L572.4 788.92L572.4 788.92L572.4 707.776L572.4 707.776L195.17 707.776z" /></clipPath><clipPath id="206"><path clip-rule="evenodd" d="M195.17 788.92L572.4 788.92L572.4 788.92L572.4 707.776L572.4 707.776L195.17 707.776z" /></clipPath><clipPath id="207"><path clip-rule="evenodd" d="M195.17 788.92L572.4 788.92L572.4 788.92L572.4 707.776L572.4 707.776L195.17 707.776z" /></clipPath><clipPath id="208"><path clip-rule="evenodd" d="M195.17 788.92L572.4 788.92L572.4 788.92L572.4 707.776L572.4 707.776L195.17 707.776z" /></clipPath><clipPath id="209"><path clip-rule="evenodd" d="M195.17 788.92L572.4 788.92L572.4 788.92L572.4 707.776L572.4 707.776L195.17 707.776z" /></clipPath><clipPath id="210"><path clip-rule="evenodd" d="M195.17 788.92L572.4 788.92L572.4 788.92L572.4 707.776L572.4 707.776L195.17 707.776z" /></clipPath><clipPath id="211"><path clip-rule="evenodd" d="M195.17 788.92L572.4 788.92L572.4 788.92L572.4 707.776L572.4 707.776L195.17 707.776z" /></clipPath><clipPath id="212"><path clip-rule="evenodd" d="M195.17 788.92L572.4 788.92L572.4 788.92L572.4 707.776L572.4 707.776L195.17 707.776z" /></clipPath><clipPath id="213"><path clip-rule="evenodd" d="M195.17 788.92L572.4 788.92L572.4 788.92L572.4 707.776L572.4 707.776L195.17 707.776z" /></clipPath><clipPath id="214"><path clip-rule="evenodd" d="M195.17 788.92L572.4 788.92L572.4 788.92L572.4 707.776L572.4 707.776L195.17 707.776z" /></clipPath><clipPath id="215"><path clip-rule="evenodd" d="M195.17 788.92L572.4 788.92L572.4 788.92L572.4 707.776L572.4 707.776L195.17 707.776z" /></clipPath><clipPath id="216"><path clip-rule="evenodd" d="M195.17 788.92L572.4 788.92L572.4 788.92L572.4 707.776L572.4 707.776L195.17 707.776z" /></clipPath><clipPath id="217"><path clip-rule="evenodd" d="M195.17 788.92L572.4 788.92L572.4 788.92L572.4 707.776L572.4 707.776L195.17 707.776z" /></clipPath><clipPath id="218"><path clip-rule="evenodd" d="M195.17 788.92L572.4 788.92L572.4 788.92L572.4 707.776L572.4 707.776L195.17 707.776z" /></clipPath><clipPath id="219"><path clip-rule="evenodd" d="M195.17 788.92L572.4 788.92L572.4 788.92L572.4 707.776L572.4 707.776L195.17 707.776z" /></clipPath><clipPath id="220"><path clip-rule="evenodd" d="M195.17 788.92L572.4 788.92L572.4 788.92L572.4 707.776L572.4 707.776L195.17 707.776z" /></clipPath><clipPath id="221"><path clip-rule="evenodd" d="M31.321 754.601L184.491 754.601L184.491 754.601L184.491 664.811L184.491 664.811L31.321 664.811z" /></clipPath><clipPath id="222"><path clip-rule="evenodd" d="M31.32 754.6L184.49 754.6L184.49 754.6L184.49 664.816L184.49 664.816L31.32 664.816z" /></clipPath><clipPath id="223"><path clip-rule="evenodd" d="M31.32 754.6L184.49 754.6L184.49 754.6L184.49 664.816L184.49 664.816L31.32 664.816z" /></clipPath><clipPath id="224"><path clip-rule="evenodd" d="M31.32 754.6L184.49 754.6L184.49 754.6L184.49 664.816L184.49 664.816L31.32 664.816z" /></clipPath><clipPath id="225"><path clip-rule="evenodd" d="M31.32 754.6L184.49 754.6L184.49 754.6L184.49 664.816L184.49 664.816L31.32 664.816z" /></clipPath><clipPath id="226"><path clip-rule="evenodd" d="M31.32 754.6L184.49 754.6L184.49 754.6L184.49 664.816L184.49 664.816L31.32 664.816z" /></clipPath><clipPath id="227"><path clip-rule="evenodd" d="M31.32 754.6L184.49 754.6L184.49 754.6L184.49 664.816L184.49 664.816L31.32 664.816z" /></clipPath><clipPath id="228"><path clip-rule="evenodd" d="M31.32 754.6L184.49 754.6L184.49 754.6L184.49 664.816L184.49 664.816L31.32 664.816z" /></clipPath><clipPath id="229"><path clip-rule="evenodd" d="M31.32 754.6L184.49 754.6L184.49 754.6L184.49 664.816L184.49 664.816L31.32 664.816z" /></clipPath><clipPath id="230"><path clip-rule="evenodd" d="M31.32 754.6L184.49 754.6L184.49 754.6L184.49 664.816L184.49 664.816L31.32 664.816z" /></clipPath><clipPath id="231"><path clip-rule="evenodd" d="M31.32 754.6L184.49 754.6L184.49 754.6L184.49 664.816L184.49 664.816L31.32 664.816z" /></clipPath><clipPath id="232"><path clip-rule="evenodd" d="M31.32 754.6L184.49 754.6L184.49 754.6L184.49 664.816L184.49 664.816L31.32 664.816z" /></clipPath><clipPath id="233"><path clip-rule="evenodd" d="M31.32 754.6L184.49 754.6L184.49 754.6L184.49 664.816L184.49 664.816L31.32 664.816z" /></clipPath><clipPath id="234"><path clip-rule="evenodd" d="M31.32 754.6L184.49 754.6L184.49 754.6L184.49 664.816L184.49 664.816L31.32 664.816z" /></clipPath><clipPath id="235"><path clip-rule="evenodd" d="M31.32 754.6L184.49 754.6L184.49 754.6L184.49 664.816L184.49 664.816L31.32 664.816z" /></clipPath><clipPath id="236"><path clip-rule="evenodd" d="M31.32 754.6L184.49 754.6L184.49 754.6L184.49 664.816L184.49 664.816L31.32 664.816z" /></clipPath><clipPath id="237"><path clip-rule="evenodd" d="M35.041 755.201L101.311 755.201L101.311 755.201L101.311 735.971L101.311 735.971L35.041 735.971z" /></clipPath><clipPath id="238"><path clip-rule="evenodd" d="M35.04 755.2L101.304 755.2L101.304 755.2L101.304 735.976L101.304 735.976L35.04 735.976z" /></clipPath><clipPath id="239"><path clip-rule="evenodd" d="M35.04 755.2L101.304 755.2L101.304 755.2L101.304 735.976L101.304 735.976L35.04 735.976z" /></clipPath><clipPath id="240"><path clip-rule="evenodd" d="M59.911 836.2014L143.311 836.2014L143.311 836.2014L143.311 757.7214L143.311 757.7214L59.911 757.7214z" /></clipPath><clipPath id="241"><path clip-rule="evenodd" d="M59.904 836.2L143.304 836.2L143.304 836.2L143.304 757.72L143.304 757.72L59.904 757.72z" /></clipPath><clipPath id="242"><path clip-rule="evenodd" d="M67.08 836.0798L136.08 836.0798L136.08 836.0798L136.08 757.5998L136.08 757.5998L67.08 757.5998z" /></clipPath></defs><g transform="matrix(1.333333 0 0 1.333333 0 0)"><g clip-path="url(#1)"><path transform="matrix(1 0 0 -1 0 841)" d="M0 0.019958L595.3 0.019958L595.3 0.019958L595.3 841.92L595.3 841.92L0 841.92z" stroke="none" fill="#FFFFFF" fill-rule="evenodd" /><path transform="matrix(1 0 0 -1 0 841)" d="M31.2 690.58L144.02 690.58L144.02 690.58L144.02 830.04L144.02 830.04L31.2 830.04z" stroke="none" fill="#FFFFFF" fill-rule="evenodd" /><path transform="matrix(1 0 0 -1 0 841)" d="M43.55 690.97L142.95 690.97L142.95 690.97L142.95 830.12L142.95 830.12L43.55 830.12z" stroke="none" fill="#FFFFFF" fill-rule="evenodd" /><g clip-path="url(#2)"><g transform="matrix(0.3269737 0 0 0.3274117 43.55 10.88)"><g transform="matrix(1 0 0 1 0 0)"><image x="0" y="0" xlink:href="img_01.png" width="304" height="425" /></g></g></g><path transform="matrix(1 0 0 -1 0 841)" d="M79.45 412.87C 79.45 574.63 213.1 705.77 377.97 705.77C 542.85 705.77 676.5 574.63 676.5 412.87C 676.5 251.11 542.85 119.97 377.97 119.97C 213.1 119.97 79.45 251.11 79.45 412.87z" stroke="none" fill="#99CCFF" fill-rule="evenodd" fill-opacity="0.4" /><path transform="matrix(1 0 0 -1 0 841)" d="M201.3 765.32L552.3 765.27" stroke="#33CCFF" stroke-width="0.75" stroke-dasharray="4,3" fill="none" /><path transform="matrix(1 0 0 -1 0 841)" d="M39.25 599.44C 39.25 604.35 43.224 608.32 48.125 608.32C 53.027 608.32 57 604.35 57 599.44C 57 594.54 53.027 590.57 48.125 590.57C 43.224 590.57 39.25 594.54 39.25 599.44z" stroke="none" fill="#49ACC4" fill-rule="evenodd" /><g transform="matrix(0.3603774 0 0 0.3603774 38.3 232.53)"><g transform="matrix(1 0 0 1 0 0)"><image x="0" y="0" xlink:href="img_02.png" width="53" height="53" /></g></g><path transform="matrix(1 0 0 -1 0 841)" d="M12.35 645.32L583.75 645.27" stroke="#33CCFF" stroke-width="0.75" stroke-dasharray="4,3" fill="none" /><g clip-path="url(#3)"><g clip-path="url(#4)"></g><g clip-path="url(#5)"></g></g><g clip-path="url(#6)"><g clip-path="url(#7)"></g><g clip-path="url(#8)"></g><g clip-path="url(#9)"></g><g clip-path="url(#10)"></g><g clip-path="url(#11)"></g><g clip-path="url(#12)"></g></g><g clip-path="url(#13)"><g clip-path="url(#14)"></g><g clip-path="url(#15)"></g></g><g clip-path="url(#16)"><g clip-path="url(#17)"></g><g clip-path="url(#18)"></g><g clip-path="url(#19)"></g><g clip-path="url(#20)"></g><g clip-path="url(#21)"></g><g clip-path="url(#22)"></g><g clip-path="url(#23)"></g><g clip-path="url(#24)"></g><g clip-path="url(#25)"></g><g clip-path="url(#26)"></g><g clip-path="url(#27)"></g><g clip-path="url(#28)"></g><g clip-path="url(#29)"></g><g clip-path="url(#30)"></g><g clip-path="url(#31)"></g><g clip-path="url(#32)"></g></g><g clip-path="url(#33)"><g clip-path="url(#34)"></g><g clip-path="url(#35)"></g></g><path transform="matrix(1 0 0 -1 0 841)" d="M182.6 644.72L182.65 24.17" stroke="#33CCFF" stroke-width="0.75" stroke-dasharray="4,3" fill="none" /><path transform="matrix(1 0 0 -1 0 841)" d="M39.6 536.74C 39.6 541.65 43.574 545.62 48.475 545.62C 53.377 545.62 57.35 541.65 57.35 536.74C 57.35 531.84 53.377 527.87 48.475 527.87C 43.574 527.87 39.6 531.84 39.6 536.74z" stroke="none" fill="#49ACC4" fill-rule="evenodd" /><g transform="matrix(0.1995036 -0.1995072 0.1976393 0.1976393 39.229 300.674)"><g transform="matrix(1 0 0 1 0 0)"><image x="0" y="0" xlink:href="img_03.png" width="28" height="61" /></g></g><path transform="matrix(1 0 0 -1 0 841)" d="M39.6 568.79C 39.6 573.7 43.574 577.67 48.475 577.67C 53.377 577.67 57.35 573.7 57.35 568.79C 57.35 563.89 53.377 559.92 48.475 559.92C 43.574 559.92 39.6 563.89 39.6 568.79z" stroke="none" fill="#49ACC4" fill-rule="evenodd" /><path transform="matrix(1 0 0 -1 0 841)" d="M55.303 564.45C 55.35 564.5 55.35 564.59 55.35 564.68C 55.35 572.21 55.35 572.21 55.35 572.21C 55.35 572.3 55.35 572.4 55.303 572.49C 50.883 568.68 50.883 568.68 50.883 568.68L50.883 568.68L55.303 564.45z" stroke="none" fill="#FFFFFF" fill-rule="evenodd" /><path transform="matrix(1 0 0 -1 0 841)" d="M48.65 567.84C 49.755 568.76 49.755 568.76 49.755 568.76C 50.353 569.22 50.353 569.22 50.353 569.22C 54.727 572.97 54.727 572.97 54.727 572.97C 54.635 572.97 54.543 573.02 54.497 573.02C 42.803 573.02 42.803 573.02 42.803 573.02C 42.711 573.02 42.619 572.97 42.573 572.97C 46.901 569.22 46.901 569.22 46.901 569.22C 47.499 568.76 47.499 568.76 47.499 568.76L47.499 568.76L48.65 567.84z" stroke="none" fill="#FFFFFF" fill-rule="evenodd" /><path transform="matrix(1 0 0 -1 0 841)" d="M54.542 563.92C 54.588 563.92 54.681 563.92 54.727 563.97C 50.337 568.26 50.337 568.26 50.337 568.26C 48.673 566.84 48.673 566.84 48.673 566.84C 46.963 568.26 46.963 568.26 46.963 568.26C 42.573 563.97 42.573 563.97 42.573 563.97C 42.666 563.92 42.712 563.92 42.804 563.92L42.804 563.92L54.542 563.92z" stroke="none" fill="#FFFFFF" fill-rule="evenodd" /><path transform="matrix(1 0 0 -1 0 841)" d="M41.996 572.49C 41.996 572.4 41.95 572.3 41.95 572.21C 41.95 564.68 41.95 564.68 41.95 564.68C 41.95 564.59 41.996 564.5 41.996 564.45C 46.313 568.68 46.313 568.68 46.313 568.68L46.313 568.68L41.996 572.49z" stroke="none" fill="#FFFFFF" fill-rule="evenodd" /><g clip-path="url(#36)"><path transform="matrix(1 0 0 -1 0 841)" d="M65.184 590.71L134.184 590.71L134.184 590.71L134.184 606.694L134.184 606.694L65.184 606.694z" stroke="none" fill="#FFFFFF" fill-rule="evenodd" /><g clip-path="url(#37)"></g><g clip-path="url(#38)"></g></g><g clip-path="url(#39)"><path transform="matrix(1 0 0 -1 0 841)" d="M65.184 559.27L121.944 559.27L121.944 559.27L121.944 577.87L121.944 577.87L65.184 577.87z" stroke="none" fill="#FFFFFF" fill-rule="evenodd" /><g clip-path="url(#40)"></g><g clip-path="url(#41)"></g><g clip-path="url(#42)"></g></g><g clip-path="url(#43)"><path transform="matrix(1 0 0 -1 0 841)" d="M64.584 528.19L134.064 528.19L134.064 528.19L134.064 544.15L134.064 544.15L64.584 544.15z" stroke="none" fill="#FFFFFF" fill-rule="evenodd" /><g clip-path="url(#44)"></g><g clip-path="url(#45)"></g></g><path transform="matrix(1 0 0 -1 0 841)" d="M12.35 509.67L181.9 509.62" stroke="#33CCFF" stroke-width="0.75" stroke-dasharray="4,3" fill="none" /><g clip-path="url(#46)"><g clip-path="url(#47)"></g><g clip-path="url(#48)"></g></g><g clip-path="url(#49)"><path transform="matrix(1 0 0 -1 0 841)" d="M40.32 455.23L106.824 455.23L106.824 455.23L106.824 471.19L106.824 471.19L40.32 471.19z" stroke="none" fill="#FFFFFF" fill-rule="evenodd" /><g clip-path="url(#50)"></g><g clip-path="url(#51)"></g><g clip-path="url(#52)"></g><g clip-path="url(#53)"></g><path transform="matrix(1 0 0 -1 0 841)" d="M40.32 430.87L140.66 430.87L140.66 430.87L140.66 446.83L140.66 446.83L40.32 446.83z" stroke="none" fill="#FFFFFF" fill-rule="evenodd" /><g clip-path="url(#54)"></g><g clip-path="url(#55)"></g><g clip-path="url(#56)"></g><g clip-path="url(#57)"></g><g clip-path="url(#58)"></g><g clip-path="url(#59)"></g><g clip-path="url(#60)"></g><path transform="matrix(1 0 0 -1 0 841)" d="M40.32 406.37L125.904 406.37L125.904 406.37L125.904 422.33L125.904 422.33L40.32 422.33z" stroke="none" fill="#FFFFFF" fill-rule="evenodd" /><g clip-path="url(#61)"></g><g clip-path="url(#62)"></g><g clip-path="url(#63)"></g><g clip-path="url(#64)"></g><path transform="matrix(1 0 0 -1 0 841)" d="M40.32 381.89L125.904 381.89L125.904 381.89L125.904 397.85L125.904 397.85L40.32 397.85z" stroke="none" fill="#FFFFFF" fill-rule="evenodd" /><g clip-path="url(#65)"></g><g clip-path="url(#66)"></g><g clip-path="url(#67)"></g><g clip-path="url(#68)"></g><path transform="matrix(1 0 0 -1 0 841)" d="M40.32 357.53L125.904 357.53L125.904 357.53L125.904 373.49L125.904 373.49L40.32 373.49z" stroke="none" fill="#FFFFFF" fill-rule="evenodd" /><g clip-path="url(#69)"></g><g clip-path="url(#70)"></g></g><g clip-path="url(#71)"><g clip-path="url(#72)"></g><g clip-path="url(#73)"></g></g><g clip-path="url(#74)"><g clip-path="url(#75)"></g><g clip-path="url(#76)"></g><g clip-path="url(#77)"></g><g clip-path="url(#78)"></g><g clip-path="url(#79)"></g><g clip-path="url(#80)"></g><g clip-path="url(#81)"></g><g clip-path="url(#82)"></g><g clip-path="url(#83)"></g><g clip-path="url(#84)"></g><g clip-path="url(#85)"></g><g clip-path="url(#86)"></g><g clip-path="url(#87)"></g><g clip-path="url(#88)"></g><g clip-path="url(#89)"></g><g clip-path="url(#90)"></g><g clip-path="url(#91)"></g><g clip-path="url(#92)"></g><g clip-path="url(#93)"></g><g clip-path="url(#94)"></g><g clip-path="url(#95)"></g><g clip-path="url(#96)"></g><g clip-path="url(#97)"></g><g clip-path="url(#98)"></g><g clip-path="url(#99)"></g><g clip-path="url(#100)"></g><g clip-path="url(#101)"></g><g clip-path="url(#102)"></g><g clip-path="url(#103)"></g></g><g clip-path="url(#104)"><g clip-path="url(#105)"></g><g clip-path="url(#106)"></g></g><path transform="matrix(1 0 0 -1 0 841)" d="M584.3 170.37L601.15 170.37L601.15 170.37L601.15 652.07L601.15 652.07L584.3 652.07z" stroke="none" fill="#FFFFFF" fill-rule="evenodd" /><g clip-path="url(#107)"><g clip-path="url(#108)"></g><g clip-path="url(#109)"></g></g><g clip-path="url(#110)"><path transform="matrix(1 0 0 -1 0 841)" d="M203.81 594.55L550.08 594.55L550.08 594.55L550.08 610.534L550.08 610.534L203.81 610.534z" stroke="none" fill="#FFFFFF" fill-rule="evenodd" /><g clip-path="url(#111)"></g><g clip-path="url(#112)"></g><g clip-path="url(#113)"></g><g clip-path="url(#114)"></g><g clip-path="url(#115)"></g><g clip-path="url(#116)"></g><g clip-path="url(#117)"></g><g clip-path="url(#118)"></g><g clip-path="url(#119)"></g><g clip-path="url(#120)"></g><path transform="matrix(1 0 0 -1 0 841)" d="M203.81 576.55L564.24 576.55L564.24 576.55L564.24 592.51L564.24 592.51L203.81 592.51z" stroke="none" fill="#FFFFFF" fill-rule="evenodd" /><g clip-path="url(#121)"></g><g clip-path="url(#122)"></g><g clip-path="url(#123)"></g><g clip-path="url(#124)"></g><g clip-path="url(#125)"></g><g clip-path="url(#126)"></g><g clip-path="url(#127)"></g><g clip-path="url(#128)"></g><g clip-path="url(#129)"></g><path transform="matrix(1 0 0 -1 0 841)" d="M203.81 558.55L564.24 558.55L564.24 558.55L564.24 573.91L564.24 573.91L203.81 573.91z" stroke="none" fill="#FFFFFF" fill-rule="evenodd" /><g clip-path="url(#130)"></g><g clip-path="url(#131)"></g><path transform="matrix(1 0 0 -1 0 841)" d="M203.81 540.55L564.24 540.55L564.24 540.55L564.24 555.91L564.24 555.91L203.81 555.91z" stroke="none" fill="#FFFFFF" fill-rule="evenodd" /><g clip-path="url(#132)"></g><path transform="matrix(1 0 0 -1 0 841)" d="M203.81 522.55L550.56 522.55L550.56 522.55L550.56 537.91L550.56 537.91L203.81 537.91z" stroke="none" fill="#FFFFFF" fill-rule="evenodd" /><g clip-path="url(#133)"></g><g clip-path="url(#134)"></g><path transform="matrix(1 0 0 -1 0 841)" d="M203.81 504.55L291.29 504.55L291.29 504.55L291.29 520.51L291.29 520.51L203.81 520.51z" stroke="none" fill="#FFFFFF" fill-rule="evenodd" /><g clip-path="url(#135)"></g><g clip-path="url(#136)"></g><path transform="matrix(1 0 0 -1 0 841)" d="M203.81 486.55L559.68 486.55L559.68 486.55L559.68 502.51L559.68 502.51L203.81 502.51z" stroke="none" fill="#FFFFFF" fill-rule="evenodd" /><g clip-path="url(#137)"></g><g clip-path="url(#138)"></g><g clip-path="url(#139)"></g><g clip-path="url(#140)"></g><g clip-path="url(#141)"></g><g clip-path="url(#142)"></g><path transform="matrix(1 0 0 -1 0 841)" d="M203.81 468.55L538.92 468.55L538.92 468.55L538.92 484.51L538.92 484.51L203.81 484.51z" stroke="none" fill="#FFFFFF" fill-rule="evenodd" /><g clip-path="url(#143)"></g><g clip-path="url(#144)"></g><g clip-path="url(#145)"></g><g clip-path="url(#146)"></g><g clip-path="url(#147)"></g><path transform="matrix(1 0 0 -1 0 841)" d="M203.81 450.55L564.24 450.55L564.24 450.55L564.24 465.91L564.24 465.91L203.81 465.91z" stroke="none" fill="#FFFFFF" fill-rule="evenodd" /><g clip-path="url(#148)"></g><g clip-path="url(#149)"></g><path transform="matrix(1 0 0 -1 0 841)" d="M203.81 432.55L497.98 432.55L497.98 432.55L497.98 447.91L497.98 447.91L203.81 447.91z" stroke="none" fill="#FFFFFF" fill-rule="evenodd" /><g clip-path="url(#150)"></g><g clip-path="url(#151)"></g><g clip-path="url(#152)"></g><path transform="matrix(1 0 0 -1 0 841)" d="M203.81 396.53L559.68 396.53L559.68 396.53L559.68 412.49L559.68 412.49L203.81 412.49z" stroke="none" fill="#FFFFFF" fill-rule="evenodd" /><g clip-path="url(#153)"></g><g clip-path="url(#154)"></g><g clip-path="url(#155)"></g><g clip-path="url(#156)"></g><g clip-path="url(#157)"></g><g clip-path="url(#158)"></g><path transform="matrix(1 0 0 -1 0 841)" d="M203.81 378.53L535.44 378.53L535.44 378.53L535.44 394.49L535.44 394.49L203.81 394.49z" stroke="none" fill="#FFFFFF" fill-rule="evenodd" /><g clip-path="url(#159)"></g><g clip-path="url(#160)"></g><g clip-path="url(#161)"></g><path transform="matrix(1 0 0 -1 0 841)" d="M203.81 360.53L564.24 360.53L564.24 360.53L564.24 376.49L564.24 376.49L203.81 376.49z" stroke="none" fill="#FFFFFF" fill-rule="evenodd" /><g clip-path="url(#162)"></g><g clip-path="url(#163)"></g><path transform="matrix(1 0 0 -1 0 841)" d="M203.81 342.53L564.24 342.53L564.24 342.53L564.24 358.49L564.24 358.49L203.81 358.49z" stroke="none" fill="#FFFFFF" fill-rule="evenodd" /><g clip-path="url(#164)"></g><path transform="matrix(1 0 0 -1 0 841)" d="M203.81 324.53L564.24 324.53L564.24 324.53L564.24 340.49L564.24 340.49L203.81 340.49z" stroke="none" fill="#FFFFFF" fill-rule="evenodd" /><g clip-path="url(#165)"></g><g clip-path="url(#166)"></g><path transform="matrix(1 0 0 -1 0 841)" d="M203.81 306.53L467.74 306.53L467.74 306.53L467.74 322.49L467.74 322.49L203.81 322.49z" stroke="none" fill="#FFFFFF" fill-rule="evenodd" /><g clip-path="url(#167)"></g><g clip-path="url(#168)"></g><g clip-path="url(#169)"></g><path transform="matrix(1 0 0 -1 0 841)" d="M203.81 270.53L562.92 270.53L562.92 270.53L562.92 286.49L562.92 286.49L203.81 286.49z" stroke="none" fill="#FFFFFF" fill-rule="evenodd" /><g clip-path="url(#170)"></g><g clip-path="url(#171)"></g><g clip-path="url(#172)"></g><g clip-path="url(#173)"></g><g clip-path="url(#174)"></g><g clip-path="url(#175)"></g><path transform="matrix(1 0 0 -1 0 841)" d="M203.81 252.5L546.48 252.5L546.48 252.5L546.48 268.484L546.48 268.484L203.81 268.484z" stroke="none" fill="#FFFFFF" fill-rule="evenodd" /><g clip-path="url(#176)"></g><g clip-path="url(#177)"></g><g clip-path="url(#178)"></g><path transform="matrix(1 0 0 -1 0 841)" d="M203.81 234.5L564.24 234.5L564.24 234.5L564.24 250.46L564.24 250.46L203.81 250.46z" stroke="none" fill="#FFFFFF" fill-rule="evenodd" /><g clip-path="url(#179)"></g><g clip-path="url(#180)"></g><path transform="matrix(1 0 0 -1 0 841)" d="M203.81 216.5L564.24 216.5L564.24 216.5L564.24 232.46L564.24 232.46L203.81 232.46z" stroke="none" fill="#FFFFFF" fill-rule="evenodd" /><g clip-path="url(#181)"></g><path transform="matrix(1 0 0 -1 0 841)" d="M203.81 198.5L564.24 198.5L564.24 198.5L564.24 214.46L564.24 214.46L203.81 214.46z" stroke="none" fill="#FFFFFF" fill-rule="evenodd" /><g clip-path="url(#182)"></g><path transform="matrix(1 0 0 -1 0 841)" d="M203.81 180.5L434.86 180.5L434.86 180.5L434.86 196.46L434.86 196.46L203.81 196.46z" stroke="none" fill="#FFFFFF" fill-rule="evenodd" /><g clip-path="url(#183)"></g><g clip-path="url(#184)"></g><g clip-path="url(#185)"></g></g><path transform="matrix(1 0 0 -1 0 841)" d="M181.05 174.32L583 174.27" stroke="#33CCFF" stroke-width="0.75" stroke-dasharray="4,3" fill="none" /><g clip-path="url(#186)"><g clip-path="url(#187)"></g><g clip-path="url(#188)"></g></g><g clip-path="url(#189)"><path transform="matrix(1 0 0 -1 0 841)" d="M202.37 115.22L539.64 115.22L539.64 115.22L539.64 131.18L539.64 131.18L202.37 131.18z" stroke="none" fill="#FFFFFF" fill-rule="evenodd" /><g clip-path="url(#190)"></g><g clip-path="url(#191)"></g><g clip-path="url(#192)"></g><g clip-path="url(#193)"></g><g clip-path="url(#194)"></g><g clip-path="url(#195)"></g><g clip-path="url(#196)"></g><path transform="matrix(1 0 0 -1 0 841)" d="M202.37 97.224L565.2 97.224L565.2 97.224L565.2 113.184L565.2 113.184L202.37 113.184z" stroke="none" fill="#FFFFFF" fill-rule="evenodd" /><g clip-path="url(#197)"></g><g clip-path="url(#198)"></g><g clip-path="url(#199)"></g><g clip-path="url(#200)"></g><g clip-path="url(#201)"></g><g clip-path="url(#202)"></g><path transform="matrix(1 0 0 -1 0 841)" d="M202.37 79.2L544.56 79.2L544.56 79.2L544.56 95.184L544.56 95.184L202.37 95.184z" stroke="none" fill="#FFFFFF" fill-rule="evenodd" /><g clip-path="url(#203)"></g><g clip-path="url(#204)"></g><g clip-path="url(#205)"></g><g clip-path="url(#206)"></g><g clip-path="url(#207)"></g><g clip-path="url(#208)"></g><g clip-path="url(#209)"></g><g clip-path="url(#210)"></g><path transform="matrix(1 0 0 -1 0 841)" d="M202.37 61.2L556.44 61.2L556.44 61.2L556.44 77.16L556.44 77.16L202.37 77.16z" stroke="none" fill="#FFFFFF" fill-rule="evenodd" /><g clip-path="url(#211)"></g><g clip-path="url(#212)"></g><g clip-path="url(#213)"></g><g clip-path="url(#214)"></g><g clip-path="url(#215)"></g><g clip-path="url(#216)"></g><g clip-path="url(#217)"></g><g clip-path="url(#218)"></g><g clip-path="url(#219)"></g><g clip-path="url(#220)"></g></g><g clip-path="url(#221)"><path transform="matrix(1 0 0 -1 0 841)" d="M38.52 158.18L162.98 158.18L162.98 158.18L162.98 174.14L162.98 174.14L38.52 174.14z" stroke="none" fill="#FFFFFF" fill-rule="evenodd" /><g clip-path="url(#222)"></g><g clip-path="url(#223)"></g><g clip-path="url(#224)"></g><g clip-path="url(#225)"></g><g clip-path="url(#226)"></g><path transform="matrix(1 0 0 -1 0 841)" d="M38.52 140.18L177.41 140.18L177.41 140.18L177.41 156.14L177.41 156.14L38.52 156.14z" stroke="none" fill="#FFFFFF" fill-rule="evenodd" /><g clip-path="url(#227)"></g><g clip-path="url(#228)"></g><g clip-path="url(#229)"></g><g clip-path="url(#230)"></g><g clip-path="url(#231)"></g><path transform="matrix(1 0 0 -1 0 841)" d="M38.52 122.3L170.3 122.3L170.3 122.3L170.3 138.26L170.3 138.26L38.52 138.26z" stroke="none" fill="#FFFFFF" fill-rule="evenodd" /><g clip-path="url(#232)"></g><g clip-path="url(#233)"></g><g clip-path="url(#234)"></g><g clip-path="url(#235)"></g><g clip-path="url(#236)"></g></g><path transform="matrix(1 0 0 -1 0 841)" d="M34.8 82.02L101.55 82.02L101.55 82.02L101.55 109.02L101.55 109.02L34.8 109.02z" stroke="none" fill="#FFFFFF" fill-rule="evenodd" /><g clip-path="url(#237)"><g clip-path="url(#238)"></g><g clip-path="url(#239)"></g></g><path transform="matrix(1 0 0 -1 0 841)" d="M59.6 1.0198L143.6 1.0198L143.6 1.0198L143.6 87.2198L143.6 87.2198L59.6 87.2198z" stroke="none" fill="#FFFFFF" fill-rule="evenodd" /><g clip-path="url(#240)"><path transform="matrix(1 0 0 -1 0 841)" d="M67.104 15.96L134.544 15.96L134.544 15.96L134.544 83.28L134.544 83.28L67.104 83.28z" stroke="none" fill="#FFFFFF" fill-rule="evenodd" /><g clip-path="url(#241)"></g></g><g clip-path="url(#242)"><g transform="matrix(0.3603261 0 0 0.3603261 67.05 757.63)"><g transform="matrix(1 0 0 1 0 0)"><image x="0" y="0" xlink:href="img_04.png" width="184" height="184" /></g></g></g><path transform="matrix(1 0 0 -1 0 841)" d="M10.8 831.6L11.28 831.6L11.28 831.6L11.28 832.08L11.28 832.08L10.8 832.08z" stroke="none" fill="#33CCFF" fill-rule="evenodd" /><path transform="matrix(1 0 0 -1 0 841)" d="M10.8 831.6L11.28 831.6L11.28 831.6L11.28 832.08L11.28 832.08L10.8 832.08z" stroke="none" fill="#33CCFF" fill-rule="evenodd" /><path transform="matrix(1 0 0 -1 0 841)" d="M11.28 831.6L584.16 831.6L584.16 831.6L584.16 832.08L584.16 832.08L11.28 832.08z" stroke="none" fill="#33CCFF" fill-rule="evenodd" /><path transform="matrix(1 0 0 -1 0 841)" d="M584.16 831.6L584.64 831.6L584.64 831.6L584.64 832.08L584.64 832.08L584.16 832.08z" stroke="none" fill="#33CCFF" fill-rule="evenodd" /><path transform="matrix(1 0 0 -1 0 841)" d="M584.16 831.6L584.64 831.6L584.64 831.6L584.64 832.08L584.64 832.08L584.16 832.08z" stroke="none" fill="#33CCFF" fill-rule="evenodd" /><path transform="matrix(1 0 0 -1 0 841)" d="M10.8 10.2L11.28 10.2L11.28 10.2L11.28 831.6L11.28 831.6L10.8 831.6z" stroke="none" fill="#33CCFF" fill-rule="evenodd" /><path transform="matrix(1 0 0 -1 0 841)" d="M584.16 10.2L584.64 10.2L584.64 10.2L584.64 831.6L584.64 831.6L584.16 831.6z" stroke="none" fill="#33CCFF" fill-rule="evenodd" /><path transform="matrix(1 0 0 -1 0 841)" d="M10.8 9.72L11.28 9.72L11.28 9.72L11.28 10.19998L11.28 10.19998L10.8 10.19998z" stroke="none" fill="#33CCFF" fill-rule="evenodd" /><path transform="matrix(1 0 0 -1 0 841)" d="M10.8 9.72L11.28 9.72L11.28 9.72L11.28 10.19998L11.28 10.19998L10.8 10.19998z" stroke="none" fill="#33CCFF" fill-rule="evenodd" /><path transform="matrix(1 0 0 -1 0 841)" d="M11.28 9.72L584.16 9.72L584.16 9.72L584.16 10.19998L584.16 10.19998L11.28 10.19998z" stroke="none" fill="#33CCFF" fill-rule="evenodd" /><path transform="matrix(1 0 0 -1 0 841)" d="M584.16 9.72L584.64 9.72L584.64 9.72L584.64 10.19998L584.64 10.19998L584.16 10.19998z" stroke="none" fill="#33CCFF" fill-rule="evenodd" /><path transform="matrix(1 0 0 -1 0 841)" d="M584.16 9.72L584.64 9.72L584.64 9.72L584.64 10.19998L584.64 10.19998L584.16 10.19998z" stroke="none" fill="#33CCFF" fill-rule="evenodd" /></g></g></svg>